<?xml version="1.0" encoding="UTF-8"?>
<!DOCTYPE svg PUBLIC "-//W3C//DTD SVG 1.1//EN" "http://www.w3.org/Graphics/SVG/1.1/DTD/svg11.dtd">
<svg xmlns="http://www.w3.org/2000/svg" version="1.1" width="400px" height="400px" style="shape-rendering:geometricPrecision; text-rendering:geometricPrecision; image-rendering:optimizeQuality; fill-rule:evenodd; clip-rule:evenodd" xmlns:xlink="http://www.w3.org/1999/xlink">
<g><path style="opacity:1" fill="#3a3462" d="M -0.5,-0.5 C 132.833,-0.5 266.167,-0.5 399.5,-0.5C 399.5,10.1667 399.5,20.8333 399.5,31.5C 394.167,31.5 388.833,31.5 383.5,31.5C 383.5,36.8333 383.5,42.1667 383.5,47.5C 373.5,47.5 363.5,47.5 353.5,47.5C 352.833,58.1667 352.167,58.1667 351.5,47.5C 346.167,47.5 340.833,47.5 335.5,47.5C 335.5,52.8333 335.5,58.1667 335.5,63.5C 332.833,63.5 330.167,63.5 327.5,63.5C 327.5,64.5 327.5,65.5 327.5,66.5C 324.833,66.5 322.167,66.5 319.5,66.5C 319.5,70.5 319.5,74.5 319.5,78.5C 314.167,78.8333 308.833,79.1667 303.5,79.5C 303.5,84.5 303.5,89.5 303.5,94.5C 295.257,94.858 287.09,95.5246 279,96.5C 274.256,95.1365 269.59,95.4698 265,97.5C 259.294,96.5621 254.127,94.3954 249.5,91C 246.937,89.9207 244.271,89.4207 241.5,89.5C 240.508,89.6716 239.842,89.3382 239.5,88.5C 238.358,86.5669 236.692,85.0669 234.5,84C 225.386,83.4255 216.386,82.0922 207.5,80C 195.722,78.6627 184.222,79.8294 173,83.5C 169.641,82.9403 166.308,82.2736 163,81.5C 161.274,82.6479 161.441,83.8145 163.5,85C 162.833,85.1667 162.167,85.3333 161.5,85.5C 155.635,83.7663 149.635,83.0996 143.5,83.5C 143.5,82.1667 143.5,80.8333 143.5,79.5C 138.167,79.5 132.833,79.5 127.5,79.5C 127.5,82.1667 127.5,84.8333 127.5,87.5C 130.167,87.5 132.833,87.5 135.5,87.5C 135.5,88.5 135.5,89.5 135.5,90.5C 132.833,90.5 130.167,90.5 127.5,90.5C 127.5,92.1667 127.5,93.8333 127.5,95.5C 123.5,95.5 119.5,95.5 115.5,95.5C 115.22,98.3882 116.553,99.8882 119.5,100C 123.118,100.966 126.451,100.466 129.5,98.5C 129.833,98.8333 130.167,99.1667 130.5,99.5C 128.438,101.403 127.104,103.737 126.5,106.5C 125.232,105.572 123.899,105.405 122.5,106C 120.68,107.805 119.514,109.972 119,112.5C 117.817,113.731 116.651,113.731 115.5,112.5C 116.83,108.46 116.663,104.46 115,100.5C 113.989,99.6634 112.822,99.33 111.5,99.5C 111.5,98.1667 111.5,96.8333 111.5,95.5C 108.833,95.5 106.167,95.5 103.5,95.5C 102.833,106.167 102.167,106.167 101.5,95.5C 99.5,95.5 97.5,95.5 95.5,95.5C 95.5,90.1667 95.5,84.8333 95.5,79.5C 84.8333,79.5 74.1667,79.5 63.5,79.5C 63.5,75.1667 63.5,70.8333 63.5,66.5C 58.1667,66.5 52.8333,66.5 47.5,66.5C 47.5,65.5 47.5,64.5 47.5,63.5C 42.1667,63.5 36.8333,63.5 31.5,63.5C 31.5,58.1667 31.5,52.8333 31.5,47.5C 26.1667,47.5 20.8333,47.5 15.5,47.5C 15.5,42.1667 15.5,36.8333 15.5,31.5C 13.1667,31.5 10.8333,31.5 8.5,31.5C 8.82256,27.774 8.48922,24.1073 7.5,20.5C 5.22748,19.6249 4.22748,17.9582 4.5,15.5C 3.5,15.5 2.5,15.5 1.5,15.5C 1.77089,13.6203 1.10422,12.287 -0.5,11.5C -0.5,7.5 -0.5,3.5 -0.5,-0.5 Z"/></g>
<g><path style="opacity:1" fill="#373460" d="M -0.5,11.5 C 1.10422,12.287 1.77089,13.6203 1.5,15.5C 2.5,15.5 3.5,15.5 4.5,15.5C 4.22748,17.9582 5.22748,19.6249 7.5,20.5C 8.48922,24.1073 8.82256,27.774 8.5,31.5C 10.8333,31.5 13.1667,31.5 15.5,31.5C 15.5,36.8333 15.5,42.1667 15.5,47.5C 20.8333,47.5 26.1667,47.5 31.5,47.5C 31.5,52.8333 31.5,58.1667 31.5,63.5C 36.8333,63.5 42.1667,63.5 47.5,63.5C 47.5,64.5 47.5,65.5 47.5,66.5C 52.8333,66.5 58.1667,66.5 63.5,66.5C 63.5,70.8333 63.5,75.1667 63.5,79.5C 74.1667,79.5 84.8333,79.5 95.5,79.5C 95.5,84.8333 95.5,90.1667 95.5,95.5C 97.5,95.5 99.5,95.5 101.5,95.5C 102.167,106.167 102.833,106.167 103.5,95.5C 106.167,95.5 108.833,95.5 111.5,95.5C 111.5,96.8333 111.5,98.1667 111.5,99.5C 112.822,99.33 113.989,99.6634 115,100.5C 116.663,104.46 116.83,108.46 115.5,112.5C 116.651,113.731 117.817,113.731 119,112.5C 119.514,109.972 120.68,107.805 122.5,106C 123.899,105.405 125.232,105.572 126.5,106.5C 127.104,103.737 128.438,101.403 130.5,99.5C 130.167,99.1667 129.833,98.8333 129.5,98.5C 126.451,100.466 123.118,100.966 119.5,100C 116.553,99.8882 115.22,98.3882 115.5,95.5C 119.5,95.5 123.5,95.5 127.5,95.5C 127.5,93.8333 127.5,92.1667 127.5,90.5C 130.167,90.5 132.833,90.5 135.5,90.5C 135.5,89.5 135.5,88.5 135.5,87.5C 132.833,87.5 130.167,87.5 127.5,87.5C 127.5,84.8333 127.5,82.1667 127.5,79.5C 132.833,79.5 138.167,79.5 143.5,79.5C 143.5,80.8333 143.5,82.1667 143.5,83.5C 149.635,83.0996 155.635,83.7663 161.5,85.5C 162.167,85.3333 162.833,85.1667 163.5,85C 161.441,83.8145 161.274,82.6479 163,81.5C 166.308,82.2736 169.641,82.9403 173,83.5C 184.222,79.8294 195.722,78.6627 207.5,80C 216.386,82.0922 225.386,83.4255 234.5,84C 236.692,85.0669 238.358,86.5669 239.5,88.5C 184.228,72.3697 139.228,87.0363 104.5,132.5C 104.216,130.123 104.216,127.956 104.5,126C 101.634,123.34 98.634,123.507 95.5,126.5C 90.2079,127.495 84.8746,127.828 79.5,127.5C 79.8256,123.116 79.4922,118.783 78.5,114.5C 76.0758,115.423 74.0758,116.923 72.5,119C 70.5273,119.495 68.5273,119.662 66.5,119.5C 66.5,116.833 66.5,114.167 66.5,111.5C 65.5,111.5 64.5,111.5 63.5,111.5C 63.5,108.833 63.5,106.167 63.5,103.5C 58.465,103.132 55.7983,100.465 55.5,95.5C 51.1539,95.6657 46.8206,95.499 42.5,95C 41.9747,94.3076 41.3081,93.8076 40.5,93.5C 36.3509,94.7687 32.0176,95.4354 27.5,95.5C 22.9824,95.4354 18.6491,94.7687 14.5,93.5C 11.4646,95.301 8.13125,95.9677 4.5,95.5C 4.33669,93.1432 4.50335,90.8098 5,88.5C 6.51576,91.0515 7.34909,90.7181 7.5,87.5C 6.5,87.5 5.5,87.5 4.5,87.5C 4.5,84.8333 4.5,82.1667 4.5,79.5C 2.83333,79.5 1.16667,79.5 -0.5,79.5C -0.5,56.8333 -0.5,34.1667 -0.5,11.5 Z"/></g>
<g><path style="opacity:1" fill="#373360" d="M 399.5,31.5 C 399.5,42.1667 399.5,52.8333 399.5,63.5C 396.833,63.5 394.167,63.5 391.5,63.5C 391.812,66.8884 390.479,69.3884 387.5,71C 389.767,72.0812 389.934,73.5812 388,75.5C 386.644,76.3802 385.144,76.7135 383.5,76.5C 383.5,77.5 383.5,78.5 383.5,79.5C 379.833,79.5 376.167,79.5 372.5,79.5C 372.5,82.1667 372.5,84.8333 372.5,87.5C 370.833,87.5 369.167,87.5 367.5,87.5C 367.5,90.1667 367.5,92.8333 367.5,95.5C 362.167,95.5 356.833,95.5 351.5,95.5C 351.5,97.1667 351.5,98.8333 351.5,100.5C 345.771,100.212 340.104,100.546 334.5,101.5C 334.167,101.833 333.833,102.167 333.5,102.5C 335.26,105.212 335.927,108.212 335.5,111.5C 326.077,111.063 316.744,111.73 307.5,113.5C 304.536,112.4 301.536,111.9 298.5,112C 299.333,114.167 300.833,115.667 303,116.5C 303.667,117.5 303.667,118.5 303,119.5C 301.261,117.259 299.094,115.592 296.5,114.5C 295.614,113.675 295.281,112.675 295.5,111.5C 291.154,111.666 286.821,111.499 282.5,111C 281.718,108.26 281.218,105.426 281,102.5C 272.167,100.488 271.501,102.488 279,108.5C 279.617,109.449 279.451,110.282 278.5,111C 280.482,112.805 281.816,114.972 282.5,117.5C 270.435,105.759 256.768,96.4253 241.5,89.5C 244.271,89.4207 246.937,89.9207 249.5,91C 254.127,94.3954 259.294,96.5621 265,97.5C 269.59,95.4698 274.256,95.1365 279,96.5C 287.09,95.5246 295.257,94.858 303.5,94.5C 303.5,89.5 303.5,84.5 303.5,79.5C 308.833,79.1667 314.167,78.8333 319.5,78.5C 319.5,74.5 319.5,70.5 319.5,66.5C 322.167,66.5 324.833,66.5 327.5,66.5C 327.5,65.5 327.5,64.5 327.5,63.5C 330.167,63.5 332.833,63.5 335.5,63.5C 335.5,58.1667 335.5,52.8333 335.5,47.5C 340.833,47.5 346.167,47.5 351.5,47.5C 352.167,58.1667 352.833,58.1667 353.5,47.5C 363.5,47.5 373.5,47.5 383.5,47.5C 383.5,42.1667 383.5,36.8333 383.5,31.5C 388.833,31.5 394.167,31.5 399.5,31.5 Z"/></g>
<g><path style="opacity:1" fill="#35305e" d="M 399.5,63.5 C 399.5,102.167 399.5,140.833 399.5,179.5C 395.756,181.117 393.756,179.783 393.5,175.5C 387.759,175.355 386.759,173.522 390.5,170C 388.478,167.637 386.145,167.137 383.5,168.5C 381.777,166.747 380.277,164.747 379,162.5C 376.516,165.259 375.35,164.926 375.5,161.5C 370.167,161.5 364.833,161.5 359.5,161.5C 359.5,162.833 359.5,164.167 359.5,165.5C 356.833,165.5 354.167,165.5 351.5,165.5C 351.5,164.5 351.5,163.5 351.5,162.5C 348.833,162.5 346.167,162.5 343.5,162.5C 343.5,164.167 343.5,165.833 343.5,167.5C 340.833,167.5 338.167,167.5 335.5,167.5C 335.5,168.5 335.5,169.5 335.5,170.5C 332.833,170.5 330.167,170.5 327.5,170.5C 327.5,169.5 327.5,168.5 327.5,167.5C 324.833,167.5 322.167,167.5 319.5,167.5C 318.442,159.539 317.775,151.539 317.5,143.5C 315.833,143.5 314.167,143.5 312.5,143.5C 312.5,148.833 312.5,154.167 312.5,159.5C 313.833,159.5 315.167,159.5 316.5,159.5C 316.766,163.605 316.266,167.605 315,171.5C 312.98,167.73 311.814,163.73 311.5,159.5C 310.167,159.5 308.833,159.5 307.5,159.5C 302.226,143.609 293.893,129.609 282.5,117.5C 281.816,114.972 280.482,112.805 278.5,111C 279.451,110.282 279.617,109.449 279,108.5C 271.501,102.488 272.167,100.488 281,102.5C 281.218,105.426 281.718,108.26 282.5,111C 286.821,111.499 291.154,111.666 295.5,111.5C 295.281,112.675 295.614,113.675 296.5,114.5C 299.094,115.592 301.261,117.259 303,119.5C 303.667,118.5 303.667,117.5 303,116.5C 300.833,115.667 299.333,114.167 298.5,112C 301.536,111.9 304.536,112.4 307.5,113.5C 316.744,111.73 326.077,111.063 335.5,111.5C 335.927,108.212 335.26,105.212 333.5,102.5C 333.833,102.167 334.167,101.833 334.5,101.5C 340.104,100.546 345.771,100.212 351.5,100.5C 351.5,98.8333 351.5,97.1667 351.5,95.5C 356.833,95.5 362.167,95.5 367.5,95.5C 367.5,92.8333 367.5,90.1667 367.5,87.5C 369.167,87.5 370.833,87.5 372.5,87.5C 372.5,84.8333 372.5,82.1667 372.5,79.5C 376.167,79.5 379.833,79.5 383.5,79.5C 383.5,78.5 383.5,77.5 383.5,76.5C 385.144,76.7135 386.644,76.3802 388,75.5C 389.934,73.5812 389.767,72.0812 387.5,71C 390.479,69.3884 391.812,66.8884 391.5,63.5C 394.167,63.5 396.833,63.5 399.5,63.5 Z"/></g>
<g><path style="opacity:1" fill="#f9f9fa" d="M 239.5,88.5 C 239.842,89.3382 240.508,89.6716 241.5,89.5C 256.768,96.4253 270.435,105.759 282.5,117.5C 293.893,129.609 302.226,143.609 307.5,159.5C 310.446,167.897 312.113,176.564 312.5,185.5C 312.666,190.511 312.499,195.511 312,200.5C 307.512,195.171 302.679,190.171 297.5,185.5C 294.41,160.979 283.743,140.645 265.5,124.5C 240.494,101.451 211.161,93.2841 177.5,100C 153.789,106.044 134.622,118.878 120,138.5C 116.636,143.23 113.803,148.23 111.5,153.5C 102.25,170.268 99.0831,188.268 102,207.5C 102.743,213.058 103.909,218.392 105.5,223.5C 108.88,235.594 114.38,246.594 122,256.5C 123.704,258.373 125.537,260.04 127.5,261.5C 136.095,272.074 146.762,280.074 159.5,285.5C 160.8,289.296 163.467,291.463 167.5,292C 172.62,297.439 178.62,301.773 185.5,305C 186.5,306.667 187.833,308 189.5,309C 189.272,309.399 188.938,309.565 188.5,309.5C 165.237,307.417 144.571,299.083 126.5,284.5C 114.532,273.54 104.866,260.873 97.5,246.5C 93.8985,239.022 90.8985,231.355 88.5,223.5C 81.4314,190.908 86.7647,160.574 104.5,132.5C 139.228,87.0363 184.228,72.3697 239.5,88.5 Z"/></g>
<g><path style="opacity:1" fill="#352f5e" d="M -0.5,79.5 C 1.16667,79.5 2.83333,79.5 4.5,79.5C 4.5,82.1667 4.5,84.8333 4.5,87.5C 5.5,87.5 6.5,87.5 7.5,87.5C 7.34909,90.7181 6.51576,91.0515 5,88.5C 4.50335,90.8098 4.33669,93.1432 4.5,95.5C 8.13125,95.9677 11.4646,95.301 14.5,93.5C 18.6491,94.7687 22.9824,95.4354 27.5,95.5C 32.0176,95.4354 36.3509,94.7687 40.5,93.5C 41.3081,93.8076 41.9747,94.3076 42.5,95C 46.8206,95.499 51.1539,95.6657 55.5,95.5C 55.7983,100.465 58.465,103.132 63.5,103.5C 63.5,106.167 63.5,108.833 63.5,111.5C 64.5,111.5 65.5,111.5 66.5,111.5C 66.5,114.167 66.5,116.833 66.5,119.5C 68.5273,119.662 70.5273,119.495 72.5,119C 74.0758,116.923 76.0758,115.423 78.5,114.5C 79.4922,118.783 79.8256,123.116 79.5,127.5C 84.8746,127.828 90.2079,127.495 95.5,126.5C 98.634,123.507 101.634,123.34 104.5,126C 104.216,127.956 104.216,130.123 104.5,132.5C 86.7647,160.574 81.4314,190.908 88.5,223.5C 87.5,223.5 86.5,223.5 85.5,223.5C 85.6299,219.132 85.2965,214.798 84.5,210.5C 81.5316,205.285 80.8649,199.785 82.5,194C 81.8269,190.461 80.9936,186.961 80,183.5C 79.5003,191.493 79.3336,199.493 79.5,207.5C 74.1667,207.5 68.8333,207.5 63.5,207.5C 63.5,202.167 63.5,196.833 63.5,191.5C 43.8333,191.5 24.1667,191.5 4.5,191.5C 4.81335,188.753 4.48002,186.086 3.5,183.5C 2.74986,180.342 1.41652,177.675 -0.5,175.5C -0.5,143.5 -0.5,111.5 -0.5,79.5 Z"/></g>
<g><path style="opacity:1" fill="#fafafb" d="M 155.5,143.5 C 146.937,156.049 147.937,167.882 158.5,179C 167.836,184.096 176.503,183.096 184.5,176C 187.039,173.63 189.372,171.13 191.5,168.5C 200.263,159.396 209.597,151.063 219.5,143.5C 221.153,143.34 222.486,142.674 223.5,141.5C 244.878,134.052 263.045,138.719 278,155.5C 281.257,160.773 283.423,166.439 284.5,172.5C 284.5,173.5 284.5,174.5 284.5,175.5C 283.127,175.657 281.793,175.49 280.5,175C 279.26,172.256 277.26,170.423 274.5,169.5C 263.883,159.349 251.216,154.849 236.5,156C 231.878,157.427 227.545,159.427 223.5,162C 211.8,173.369 199.8,184.369 187.5,195C 178.56,199.329 169.227,200.496 159.5,198.5C 154.72,196.944 150.387,194.611 146.5,191.5C 133.278,178.613 129.445,163.28 135,145.5C 137.339,140.148 140.172,135.148 143.5,130.5C 158.698,115.647 177.031,107.981 198.5,107.5C 204.949,107.464 211.282,108.297 217.5,110C 197.546,117.477 178.546,126.81 160.5,138C 158.627,139.704 156.96,141.537 155.5,143.5 Z"/></g>
<g><path style="opacity:1" fill="#3a375e" d="M 265.5,124.5 C 263.545,123.677 261.545,123.51 259.5,124C 259.434,126.109 259.101,128.275 258.5,130.5C 251.653,130.918 244.986,131.918 238.5,133.5C 233.769,132.533 228.769,132.533 223.5,133.5C 223.688,135.103 223.188,136.437 222,137.5C 220.951,136.483 219.784,136.316 218.5,137C 214.129,140.516 209.129,142.683 203.5,143.5C 201.843,146.746 202.51,147.746 205.5,146.5C 206.647,146.818 207.481,147.484 208,148.5C 210.406,147.435 212.573,146.102 214.5,144.5C 216.045,143.548 217.712,143.215 219.5,143.5C 209.597,151.063 200.263,159.396 191.5,168.5C 191.343,167.127 191.51,165.793 192,164.5C 196.345,160.655 200.512,156.655 204.5,152.5C 203.376,151.086 202.376,149.586 201.5,148C 198.515,147.303 195.515,146.803 192.5,146.5C 202.77,141.7 213.103,136.867 223.5,132C 234.681,128.093 246.014,127.426 257.5,130C 247.691,119.619 235.691,115.619 221.5,118C 207.203,122.982 193.536,129.315 180.5,137C 183.42,138.946 186.087,141.113 188.5,143.5C 185.729,142.367 182.896,141.367 180,140.5C 176.795,142.213 175.795,141.213 177,137.5C 177.36,135.579 178.194,133.912 179.5,132.5C 178.833,132.167 178.167,131.833 177.5,131.5C 175.299,132.252 172.966,133.252 170.5,134.5C 168.179,138.996 164.512,141.162 159.5,141C 158.529,142.481 157.196,143.315 155.5,143.5C 156.96,141.537 158.627,139.704 160.5,138C 178.546,126.81 197.546,117.477 217.5,110C 211.282,108.297 204.949,107.464 198.5,107.5C 177.031,107.981 158.698,115.647 143.5,130.5C 146.607,124.533 150.774,119.2 156,114.5C 156.483,113.552 156.649,112.552 156.5,111.5C 154.712,111.215 153.045,111.548 151.5,112.5C 151.265,114.743 149.932,116.743 147.5,118.5C 146.28,119.711 145.113,119.711 144,118.5C 141.902,122.431 138.736,125.097 134.5,126.5C 132.599,127.935 132.266,129.602 133.5,131.5C 132.855,132.646 132.022,133.646 131,134.5C 129.293,133.862 127.46,133.862 125.5,134.5C 125.302,136.575 125.135,138.575 125,140.5C 126.147,141.458 127.147,141.125 128,139.5C 129.5,140.333 130.667,141.5 131.5,143C 126.992,142.71 122.659,143.043 118.5,144C 117.751,145.734 117.251,147.567 117,149.5C 115.008,150.665 113.175,151.998 111.5,153.5C 113.803,148.23 116.636,143.23 120,138.5C 134.622,118.878 153.789,106.044 177.5,100C 211.161,93.2841 240.494,101.451 265.5,124.5 Z"/></g>
<g><path style="opacity:1" fill="#373362" d="M 207.5,101.5 C 214.302,101.708 220.969,102.541 227.5,104C 230.478,105.932 233.311,108.099 236,110.5C 237.882,109.394 239.716,109.394 241.5,110.5C 240.147,111.524 239.48,112.857 239.5,114.5C 234.187,114.67 229.02,114.003 224,112.5C 220.911,113.96 218.078,115.793 215.5,118C 212.57,118.606 209.737,119.44 207,120.5C 207.135,118.575 207.302,116.575 207.5,114.5C 212.649,114.099 217.316,112.266 221.5,109C 221.048,107.388 219.715,106.388 217.5,106C 214.5,105.667 211.5,105.333 208.5,105C 207.663,103.989 207.33,102.822 207.5,101.5 Z"/></g>
<g><path style="opacity:1" fill="#f8f5fa" d="M 192.5,146.5 C 191.738,144.738 190.404,143.738 188.5,143.5C 186.087,141.113 183.42,138.946 180.5,137C 193.536,129.315 207.203,122.982 221.5,118C 235.691,115.619 247.691,119.619 257.5,130C 246.014,127.426 234.681,128.093 223.5,132C 213.103,136.867 202.77,141.7 192.5,146.5 Z"/></g>
<g><path style="opacity:1" fill="#363061" d="M 265.5,124.5 C 265.389,125.117 265.056,125.617 264.5,126C 265.921,128.656 267.921,130.822 270.5,132.5C 267.305,133.829 266.972,135.495 269.5,137.5C 269,137.833 268.5,138.167 268,138.5C 255.902,136.643 243.735,136.143 231.5,137C 229.521,138.208 227.355,139.041 225,139.5C 223.97,139.836 223.47,140.503 223.5,141.5C 222.486,142.674 221.153,143.34 219.5,143.5C 217.712,143.215 216.045,143.548 214.5,144.5C 212.573,146.102 210.406,147.435 208,148.5C 207.481,147.484 206.647,146.818 205.5,146.5C 202.51,147.746 201.843,146.746 203.5,143.5C 209.129,142.683 214.129,140.516 218.5,137C 219.784,136.316 220.951,136.483 222,137.5C 223.188,136.437 223.688,135.103 223.5,133.5C 228.769,132.533 233.769,132.533 238.5,133.5C 244.986,131.918 251.653,130.918 258.5,130.5C 259.101,128.275 259.434,126.109 259.5,124C 261.545,123.51 263.545,123.677 265.5,124.5 Z"/></g>
<g><path style="opacity:1" fill="#36335f" d="M 188.5,143.5 C 190.404,143.738 191.738,144.738 192.5,146.5C 195.515,146.803 198.515,147.303 201.5,148C 202.376,149.586 203.376,151.086 204.5,152.5C 200.512,156.655 196.345,160.655 192,164.5C 191.51,165.793 191.343,167.127 191.5,168.5C 189.372,171.13 187.039,173.63 184.5,176C 176.503,183.096 167.836,184.096 158.5,179C 147.937,167.882 146.937,156.049 155.5,143.5C 157.196,143.315 158.529,142.481 159.5,141C 164.512,141.162 168.179,138.996 170.5,134.5C 172.966,133.252 175.299,132.252 177.5,131.5C 178.167,131.833 178.833,132.167 179.5,132.5C 178.194,133.912 177.36,135.579 177,137.5C 175.795,141.213 176.795,142.213 180,140.5C 182.896,141.367 185.729,142.367 188.5,143.5 Z"/></g>
<g><path style="opacity:1" fill="#312e5a" d="M 383.5,168.5 C 383.5,179.167 383.5,189.833 383.5,200.5C 378.167,200.5 372.833,200.5 367.5,200.5C 367.5,202.833 367.5,205.167 367.5,207.5C 356.833,207.5 346.167,207.5 335.5,207.5C 335.5,202.167 335.5,196.833 335.5,191.5C 330.167,191.5 324.833,191.5 319.5,191.5C 319.875,188.603 319.375,185.937 318,183.5C 317.446,186.658 316.946,189.825 316.5,193C 316.576,195.738 317.576,198.072 319.5,200C 317.732,200.006 316.232,201.173 315,203.5C 314.155,205.611 313.322,207.611 312.5,209.5C 313.52,201.338 313.52,193.338 312.5,185.5C 312.113,176.564 310.446,167.897 307.5,159.5C 308.833,159.5 310.167,159.5 311.5,159.5C 311.814,163.73 312.98,167.73 315,171.5C 316.266,167.605 316.766,163.605 316.5,159.5C 315.167,159.5 313.833,159.5 312.5,159.5C 312.5,154.167 312.5,148.833 312.5,143.5C 314.167,143.5 315.833,143.5 317.5,143.5C 317.775,151.539 318.442,159.539 319.5,167.5C 322.167,167.5 324.833,167.5 327.5,167.5C 327.5,168.5 327.5,169.5 327.5,170.5C 330.167,170.5 332.833,170.5 335.5,170.5C 335.5,169.5 335.5,168.5 335.5,167.5C 338.167,167.5 340.833,167.5 343.5,167.5C 343.5,165.833 343.5,164.167 343.5,162.5C 346.167,162.5 348.833,162.5 351.5,162.5C 351.5,163.5 351.5,164.5 351.5,165.5C 354.167,165.5 356.833,165.5 359.5,165.5C 359.5,164.167 359.5,162.833 359.5,161.5C 364.833,161.5 370.167,161.5 375.5,161.5C 375.35,164.926 376.516,165.259 379,162.5C 380.277,164.747 381.777,166.747 383.5,168.5 Z"/></g>
<g><path style="opacity:1" fill="#e1d0f9" d="M 252.5,166.5 C 252.751,168.17 253.418,169.67 254.5,171C 252.406,169.906 250.073,169.572 247.5,170C 251.601,172.504 251.434,173.338 247,172.5C 246.167,174 245,175.167 243.5,176C 245.207,176.195 246.874,176.195 248.5,176C 247.377,177.044 246.044,177.71 244.5,178C 245.167,178.333 245.833,178.667 246.5,179C 246.272,179.399 245.938,179.565 245.5,179.5C 238.068,176.881 230.402,175.547 222.5,175.5C 221.668,174.671 222.001,173.838 223.5,173C 232.049,165.986 241.716,163.82 252.5,166.5 Z"/></g>
<g><path style="opacity:1" fill="#38335d" d="M 265.5,124.5 C 283.743,140.645 294.41,160.979 297.5,185.5C 297.917,195.725 297.251,205.725 295.5,215.5C 295.784,201.801 295.284,188.135 294,174.5C 291.806,168.126 289.972,168.126 288.5,174.5C 287.675,175.386 286.675,175.719 285.5,175.5C 285.737,174.209 285.404,173.209 284.5,172.5C 283.423,166.439 281.257,160.773 278,155.5C 263.045,138.719 244.878,134.052 223.5,141.5C 223.47,140.503 223.97,139.836 225,139.5C 227.355,139.041 229.521,138.208 231.5,137C 243.735,136.143 255.902,136.643 268,138.5C 268.5,138.167 269,137.833 269.5,137.5C 266.972,135.495 267.305,133.829 270.5,132.5C 267.921,130.822 265.921,128.656 264.5,126C 265.056,125.617 265.389,125.117 265.5,124.5 Z"/></g>
<g><path style="opacity:1" fill="#383455" d="M 111.5,153.5 C 110.124,158.368 109.29,163.368 109,168.5C 108.385,170.116 107.385,171.449 106,172.5C 102.509,188.629 102.675,204.796 106.5,221C 106.257,221.902 105.923,222.735 105.5,223.5C 103.909,218.392 102.743,213.058 102,207.5C 99.0831,188.268 102.25,170.268 111.5,153.5 Z"/></g>
<g><path style="opacity:1" fill="#353157" d="M 125.5,175.5 C 123.857,168.075 123.024,160.409 123,152.5C 116.013,162.791 112.68,174.125 113,186.5C 114.188,190.613 116.021,194.28 118.5,197.5C 120.252,200.672 122.252,203.672 124.5,206.5C 123.883,206.611 123.383,206.944 123,207.5C 122,205.167 120.333,203.5 118,202.5C 117.249,198.734 115.249,195.734 112,193.5C 111.245,197.255 111.411,200.922 112.5,204.5C 112.571,220.981 118.905,234.648 131.5,245.5C 130.167,245.5 128.833,245.5 127.5,245.5C 126.5,249.5 125.5,253.5 124.5,257.5C 125.5,257.5 126.5,257.5 127.5,257.5C 127.5,258.833 127.5,260.167 127.5,261.5C 125.537,260.04 123.704,258.373 122,256.5C 114.38,246.594 108.88,235.594 105.5,223.5C 108.743,228.438 112.077,233.438 115.5,238.5C 117.074,239.631 118.741,239.798 120.5,239C 119.81,236.304 118.31,234.137 116,232.5C 114.749,226.24 112.749,220.24 110,214.5C 109.596,200.41 109.429,186.41 109.5,172.5C 110.022,170.074 111.355,168.24 113.5,167C 113.793,159.586 116.626,153.419 122,148.5C 123.011,149.337 124.178,149.67 125.5,149.5C 124.283,158.152 124.283,166.818 125.5,175.5 Z"/></g>
<g><path style="opacity:1" fill="#dac4f9" d="M 252.5,166.5 C 254.05,167.441 255.716,168.107 257.5,168.5C 265.5,173.167 271.833,179.5 276.5,187.5C 273.297,187.318 271.464,185.652 271,182.5C 270.259,183.641 269.425,183.641 268.5,182.5C 268.002,181.397 267.669,180.397 267.5,179.5C 265.591,180.348 263.591,180.682 261.5,180.5C 262.144,183.316 262.477,185.982 262.5,188.5C 261.3,189.292 259.967,189.292 258.5,188.5C 254.304,185.241 249.97,182.241 245.5,179.5C 245.938,179.565 246.272,179.399 246.5,179C 245.833,178.667 245.167,178.333 244.5,178C 246.044,177.71 247.377,177.044 248.5,176C 246.874,176.195 245.207,176.195 243.5,176C 245,175.167 246.167,174 247,172.5C 251.434,173.338 251.601,172.504 247.5,170C 250.073,169.572 252.406,169.906 254.5,171C 253.418,169.67 252.751,168.17 252.5,166.5 Z"/></g>
<g><path style="opacity:1" fill="#3a3759" d="M 143.5,130.5 C 140.172,135.148 137.339,140.148 135,145.5C 129.445,163.28 133.278,178.613 146.5,191.5C 144.876,191.36 143.71,192.027 143,193.5C 141.383,192.464 141.216,191.297 142.5,190C 141.371,187.832 139.871,187.332 138,188.5C 137.155,185.309 135.655,182.476 133.5,180C 128.777,164.116 129.777,148.616 136.5,133.5C 138.559,132.433 140.392,131.1 142,129.5C 142.383,130.056 142.883,130.389 143.5,130.5 Z"/></g>
<g><path style="opacity:1" fill="#35315b" d="M 274.5,169.5 C 275.167,170.5 275.833,171.5 276.5,172.5C 274.408,172.561 272.908,173.561 272,175.5C 271.503,173.19 271.337,170.857 271.5,168.5C 269.801,168.66 268.134,168.494 266.5,168C 263.136,164.648 260.136,164.815 257.5,168.5C 255.716,168.107 254.05,167.441 252.5,166.5C 241.716,163.82 232.049,165.986 223.5,173C 222.001,173.838 221.668,174.671 222.5,175.5C 222.53,176.497 222.03,177.164 221,177.5C 220.617,175.963 219.784,174.63 218.5,173.5C 216.647,172.24 214.814,172.24 213,173.5C 212.149,175.592 211.482,177.592 211,179.5C 212.775,176.956 214.608,176.956 216.5,179.5C 215.609,180.59 214.609,180.59 213.5,179.5C 212.281,180.646 210.948,181.646 209.5,182.5C 209.667,182.833 209.833,183.167 210,183.5C 211,182.167 212,182.167 213,183.5C 213.324,181.431 214.158,181.098 215.5,182.5C 216.981,181.52 218.315,180.353 219.5,179C 220.833,178.333 222.167,178.333 223.5,179C 222.636,180.137 221.636,181.47 220.5,183C 218.866,183.494 217.199,183.66 215.5,183.5C 215.5,186.167 215.5,188.833 215.5,191.5C 214.325,191.281 213.325,191.614 212.5,192.5C 213.348,193.991 214.681,194.658 216.5,194.5C 228.229,192.975 239.896,193.308 251.5,195.5C 253.535,196.597 254.868,198.263 255.5,200.5C 258.251,199.659 260.418,200.659 262,203.5C 263.239,207.74 264.073,212.074 264.5,216.5C 251.599,193.813 233.599,188.646 210.5,201C 202.329,208.338 194.329,215.838 186.5,223.5C 186.047,222.542 185.381,221.708 184.5,221C 185.71,217.887 187.71,215.387 190.5,213.5C 191.167,213.833 191.833,214.167 192.5,214.5C 196.833,210.364 200.833,205.864 204.5,201C 205.448,200.517 206.448,200.351 207.5,200.5C 207.5,199.167 207.5,197.833 207.5,196.5C 203.71,195.899 200.544,196.899 198,199.5C 197.667,199.167 197.333,198.833 197,198.5C 195.768,201.3 195.101,204.3 195,207.5C 193.312,209.188 191.645,210.855 190,212.5C 185.378,211.821 180.545,210.988 175.5,210C 176.308,209.692 176.975,209.192 177.5,208.5C 176.147,207.476 175.48,206.143 175.5,204.5C 179.097,205.667 182.764,206.667 186.5,207.5C 188.167,207.333 189.833,207.167 191.5,207C 187.749,206.418 186.082,204.251 186.5,200.5C 188.167,200.5 189.833,200.5 191.5,200.5C 191.5,199.167 191.5,197.833 191.5,196.5C 187.759,195.599 185.759,196.932 185.5,200.5C 176.845,201.083 168.178,201.416 159.5,201.5C 159.5,200.5 159.5,199.5 159.5,198.5C 169.227,200.496 178.56,199.329 187.5,195C 199.8,184.369 211.8,173.369 223.5,162C 227.545,159.427 231.878,157.427 236.5,156C 251.216,154.849 263.883,159.349 274.5,169.5 Z"/></g>
<g><path style="opacity:1" fill="#342e5d" d="M 222.5,175.5 C 230.402,175.547 238.068,176.881 245.5,179.5C 249.97,182.241 254.304,185.241 258.5,188.5C 262.998,193.514 266.998,198.847 270.5,204.5C 271.234,205.708 271.567,207.041 271.5,208.5C 272.933,214.812 273.6,221.312 273.5,228C 273.167,231.833 272.833,235.667 272.5,239.5C 271.833,234.015 271.167,228.681 270.5,223.5C 270.238,221.436 269.071,220.103 267,219.5C 266.667,218.167 266.333,216.833 266,215.5C 265.617,216.056 265.117,216.389 264.5,216.5C 264.073,212.074 263.239,207.74 262,203.5C 260.418,200.659 258.251,199.659 255.5,200.5C 254.868,198.263 253.535,196.597 251.5,195.5C 239.896,193.308 228.229,192.975 216.5,194.5C 214.681,194.658 213.348,193.991 212.5,192.5C 213.325,191.614 214.325,191.281 215.5,191.5C 215.5,188.833 215.5,186.167 215.5,183.5C 217.199,183.66 218.866,183.494 220.5,183C 221.636,181.47 222.636,180.137 223.5,179C 222.167,178.333 220.833,178.333 219.5,179C 218.315,180.353 216.981,181.52 215.5,182.5C 214.158,181.098 213.324,181.431 213,183.5C 212,182.167 211,182.167 210,183.5C 209.833,183.167 209.667,182.833 209.5,182.5C 210.948,181.646 212.281,180.646 213.5,179.5C 214.609,180.59 215.609,180.59 216.5,179.5C 214.608,176.956 212.775,176.956 211,179.5C 211.482,177.592 212.149,175.592 213,173.5C 214.814,172.24 216.647,172.24 218.5,173.5C 219.784,174.63 220.617,175.963 221,177.5C 222.03,177.164 222.53,176.497 222.5,175.5 Z"/></g>
<g><path style="opacity:1" fill="#d2b7f8" d="M 276.5,187.5 C 277.974,188.436 278.974,189.77 279.5,191.5C 276.972,190.977 274.639,189.977 272.5,188.5C 271.558,188.608 270.725,188.941 270,189.5C 269.598,190.872 269.098,192.205 268.5,193.5C 271.286,196.939 271.953,200.605 270.5,204.5C 266.998,198.847 262.998,193.514 258.5,188.5C 259.967,189.292 261.3,189.292 262.5,188.5C 262.477,185.982 262.144,183.316 261.5,180.5C 263.591,180.682 265.591,180.348 267.5,179.5C 267.669,180.397 268.002,181.397 268.5,182.5C 269.425,183.641 270.259,183.641 271,182.5C 271.464,185.652 273.297,187.318 276.5,187.5 Z"/></g>
<g><path style="opacity:1" fill="#c8a8f8" d="M 279.5,191.5 C 282.696,195.022 285.029,199.022 286.5,203.5C 286.684,210.909 285.351,217.909 282.5,224.5C 282.334,219.489 282.501,214.489 283,209.5C 283.309,208.234 283.809,207.067 284.5,206C 282.945,204.417 281.778,202.584 281,200.5C 279.863,201.364 278.53,202.364 277,203.5C 276.5,210.158 276.334,216.825 276.5,223.5C 275.134,218.426 273.467,213.426 271.5,208.5C 271.567,207.041 271.234,205.708 270.5,204.5C 271.953,200.605 271.286,196.939 268.5,193.5C 269.098,192.205 269.598,190.872 270,189.5C 270.725,188.941 271.558,188.608 272.5,188.5C 274.639,189.977 276.972,190.977 279.5,191.5 Z"/></g>
<g><path style="opacity:1" fill="#f9f9fa" d="M 264.5,216.5 C 270.174,239.139 263.508,257.139 244.5,270.5C 238.947,267.898 233.947,264.564 229.5,260.5C 238.196,255.634 244.696,248.634 249,239.5C 252.478,223.743 246.478,214.41 231,211.5C 229.122,211.696 227.288,212.029 225.5,212.5C 222.222,213.809 219.222,215.642 216.5,218C 208.167,226.333 199.833,234.667 191.5,243C 177.087,253.793 161.087,256.96 143.5,252.5C 139.535,250.182 135.535,247.848 131.5,245.5C 118.905,234.648 112.571,220.981 112.5,204.5C 120.99,219.489 133.324,229.989 149.5,236C 164.452,239.072 176.786,234.906 186.5,223.5C 194.329,215.838 202.329,208.338 210.5,201C 233.599,188.646 251.599,193.813 264.5,216.5 Z"/></g>
<g><path style="opacity:1" fill="#2f2859" d="M -0.5,175.5 C 1.41652,177.675 2.74986,180.342 3.5,183.5C 4.48002,186.086 4.81335,188.753 4.5,191.5C 24.1667,191.5 43.8333,191.5 63.5,191.5C 63.5,196.833 63.5,202.167 63.5,207.5C 68.8333,207.5 74.1667,207.5 79.5,207.5C 79.3336,199.493 79.5003,191.493 80,183.5C 80.9936,186.961 81.8269,190.461 82.5,194C 80.8649,199.785 81.5316,205.285 84.5,210.5C 85.2965,214.798 85.6299,219.132 85.5,223.5C 84.5,223.5 83.5,223.5 82.5,223.5C 82.8563,226.564 82.0229,229.231 80,231.5C 79.5002,242.161 79.3335,252.828 79.5,263.5C 78.5,263.5 77.5,263.5 76.5,263.5C 77.7229,271.371 78.7229,279.371 79.5,287.5C 82.1667,287.5 84.8333,287.5 87.5,287.5C 87.5,290.167 87.5,292.833 87.5,295.5C 88.8333,295.5 90.1667,295.5 91.5,295.5C 91.5,298.167 91.5,300.833 91.5,303.5C 92.8333,303.5 94.1667,303.5 95.5,303.5C 95.5,306.167 95.5,308.833 95.5,311.5C 92.8333,311.5 90.1667,311.5 87.5,311.5C 87.5,314.167 87.5,316.833 87.5,319.5C 83.8333,319.5 80.1667,319.5 76.5,319.5C 76.5,322.167 76.5,324.833 76.5,327.5C 74.8333,327.5 73.1667,327.5 71.5,327.5C 71.5,326.5 71.5,325.5 71.5,324.5C 68.1668,325.167 66.1668,323.833 65.5,320.5C 67.2603,317.788 67.927,314.788 67.5,311.5C 56.495,311.667 45.495,311.5 34.5,311C 31.3014,308.723 27.6348,307.89 23.5,308.5C 22.3571,304.256 21.6904,299.923 21.5,295.5C 20.1667,295.5 18.8333,295.5 17.5,295.5C 17.5,292.833 17.5,290.167 17.5,287.5C 15.8333,287.5 14.1667,287.5 12.5,287.5C 12.5,282.167 12.5,276.833 12.5,271.5C 8.14335,271.414 3.81002,271.08 -0.5,270.5C -0.5,238.833 -0.5,207.167 -0.5,175.5 Z"/></g>
<g><path style="opacity:1" fill="#342e5d" d="M 143.5,130.5 C 142.883,130.389 142.383,130.056 142,129.5C 140.392,131.1 138.559,132.433 136.5,133.5C 129.777,148.616 128.777,164.116 133.5,180C 135.655,182.476 137.155,185.309 138,188.5C 139.871,187.332 141.371,187.832 142.5,190C 141.216,191.297 141.383,192.464 143,193.5C 143.71,192.027 144.876,191.36 146.5,191.5C 150.387,194.611 154.72,196.944 159.5,198.5C 159.5,199.5 159.5,200.5 159.5,201.5C 168.178,201.416 176.845,201.083 185.5,200.5C 185.759,196.932 187.759,195.599 191.5,196.5C 191.5,197.833 191.5,199.167 191.5,200.5C 189.833,200.5 188.167,200.5 186.5,200.5C 186.082,204.251 187.749,206.418 191.5,207C 189.833,207.167 188.167,207.333 186.5,207.5C 182.764,206.667 179.097,205.667 175.5,204.5C 175.48,206.143 176.147,207.476 177.5,208.5C 176.975,209.192 176.308,209.692 175.5,210C 180.545,210.988 185.378,211.821 190,212.5C 191.645,210.855 193.312,209.188 195,207.5C 195.101,204.3 195.768,201.3 197,198.5C 197.333,198.833 197.667,199.167 198,199.5C 200.544,196.899 203.71,195.899 207.5,196.5C 207.5,197.833 207.5,199.167 207.5,200.5C 206.448,200.351 205.448,200.517 204.5,201C 200.833,205.864 196.833,210.364 192.5,214.5C 191.833,214.167 191.167,213.833 190.5,213.5C 187.71,215.387 185.71,217.887 184.5,221C 185.381,221.708 186.047,222.542 186.5,223.5C 176.786,234.906 164.452,239.072 149.5,236C 133.324,229.989 120.99,219.489 112.5,204.5C 111.411,200.922 111.245,197.255 112,193.5C 115.249,195.734 117.249,198.734 118,202.5C 120.333,203.5 122,205.167 123,207.5C 123.383,206.944 123.883,206.611 124.5,206.5C 129.745,215.081 137.078,221.081 146.5,224.5C 158.301,228.745 168.634,226.245 177.5,217C 168.615,217.514 160.281,215.68 152.5,211.5C 144.183,206.182 137.183,199.516 131.5,191.5C 128.917,186.421 126.917,181.088 125.5,175.5C 124.283,166.818 124.283,158.152 125.5,149.5C 124.178,149.67 123.011,149.337 122,148.5C 116.626,153.419 113.793,159.586 113.5,167C 111.355,168.24 110.022,170.074 109.5,172.5C 109.429,186.41 109.596,200.41 110,214.5C 112.749,220.24 114.749,226.24 116,232.5C 118.31,234.137 119.81,236.304 120.5,239C 118.741,239.798 117.074,239.631 115.5,238.5C 112.077,233.438 108.743,228.438 105.5,223.5C 105.923,222.735 106.257,221.902 106.5,221C 102.675,204.796 102.509,188.629 106,172.5C 107.385,171.449 108.385,170.116 109,168.5C 109.29,163.368 110.124,158.368 111.5,153.5C 113.175,151.998 115.008,150.665 117,149.5C 117.251,147.567 117.751,145.734 118.5,144C 122.659,143.043 126.992,142.71 131.5,143C 130.667,141.5 129.5,140.333 128,139.5C 127.147,141.125 126.147,141.458 125,140.5C 125.135,138.575 125.302,136.575 125.5,134.5C 127.46,133.862 129.293,133.862 131,134.5C 132.022,133.646 132.855,132.646 133.5,131.5C 132.266,129.602 132.599,127.935 134.5,126.5C 138.736,125.097 141.902,122.431 144,118.5C 145.113,119.711 146.28,119.711 147.5,118.5C 149.932,116.743 151.265,114.743 151.5,112.5C 153.045,111.548 154.712,111.215 156.5,111.5C 156.649,112.552 156.483,113.552 156,114.5C 150.774,119.2 146.607,124.533 143.5,130.5 Z"/></g>
<g><path style="opacity:1" fill="#f3f1f6" d="M 125.5,175.5 C 126.917,181.088 128.917,186.421 131.5,191.5C 130.348,194.3 130.848,196.967 133,199.5C 134.131,198.396 134.965,198.729 135.5,200.5C 133.447,202.936 131.614,202.602 130,199.5C 129.683,201.301 129.016,201.634 128,200.5C 127.784,202.384 127.117,204.051 126,205.5C 124.282,203.103 123.115,200.436 122.5,197.5C 121.274,196.637 119.94,196.637 118.5,197.5C 116.021,194.28 114.188,190.613 113,186.5C 112.68,174.125 116.013,162.791 123,152.5C 123.024,160.409 123.857,168.075 125.5,175.5 Z"/></g>
<g><path style="opacity:1" fill="#2f2858" d="M 399.5,179.5 C 399.5,210.167 399.5,240.833 399.5,271.5C 394.167,271.5 388.833,271.5 383.5,271.5C 383.5,276.833 383.5,282.167 383.5,287.5C 384.833,287.5 386.167,287.5 387.5,287.5C 387.5,290.167 387.5,292.833 387.5,295.5C 388.5,295.5 389.5,295.5 390.5,295.5C 390.5,298.167 390.5,300.833 390.5,303.5C 388.167,303.5 385.833,303.5 383.5,303.5C 383.5,304.5 383.5,305.5 383.5,306.5C 378.167,307.167 372.833,307.833 367.5,308.5C 367.5,309.5 367.5,310.5 367.5,311.5C 365.5,311.5 363.5,311.5 361.5,311.5C 361.714,309.856 361.38,308.356 360.5,307C 354.843,306.501 349.176,306.334 343.5,306.5C 343.5,307.833 343.5,309.167 343.5,310.5C 348.844,310.334 354.177,310.501 359.5,311C 351.507,311.5 343.507,311.666 335.5,311.5C 335.785,309.712 335.452,308.045 334.5,306.5C 329.914,310.713 325.247,314.879 320.5,319C 317.518,319.498 314.518,319.665 311.5,319.5C 311.5,322.167 311.5,324.833 311.5,327.5C 308.482,327.665 305.482,327.498 302.5,327C 300.924,324.923 298.924,323.423 296.5,322.5C 295.614,321.675 295.281,320.675 295.5,319.5C 298.167,319.5 300.833,319.5 303.5,319.5C 303.5,314.167 303.5,308.833 303.5,303.5C 305.5,303.5 307.5,303.5 309.5,303.5C 310.167,298.167 310.833,292.833 311.5,287.5C 312.978,287.762 314.311,287.429 315.5,286.5C 316.167,285.167 317.167,284.167 318.5,283.5C 319.216,271.474 320.216,259.474 321.5,247.5C 320.643,236.63 318.81,225.964 316,215.5C 311.553,219.279 310.22,223.946 312,229.5C 311.667,228.833 311.333,228.167 311,227.5C 310.187,229.436 309.687,231.436 309.5,233.5C 310.401,237.241 309.068,239.241 305.5,239.5C 308.779,229.716 311.113,219.716 312.5,209.5C 313.322,207.611 314.155,205.611 315,203.5C 316.232,201.173 317.732,200.006 319.5,200C 317.576,198.072 316.576,195.738 316.5,193C 316.946,189.825 317.446,186.658 318,183.5C 319.375,185.937 319.875,188.603 319.5,191.5C 324.833,191.5 330.167,191.5 335.5,191.5C 335.5,196.833 335.5,202.167 335.5,207.5C 346.167,207.5 356.833,207.5 367.5,207.5C 367.5,205.167 367.5,202.833 367.5,200.5C 372.833,200.5 378.167,200.5 383.5,200.5C 383.5,189.833 383.5,179.167 383.5,168.5C 386.145,167.137 388.478,167.637 390.5,170C 386.759,173.522 387.759,175.355 393.5,175.5C 393.756,179.783 395.756,181.117 399.5,179.5 Z"/></g>
<g><path style="opacity:1" fill="#ece4f9" d="M 131.5,191.5 C 137.183,199.516 144.183,206.182 152.5,211.5C 152.577,212.75 153.244,213.583 154.5,214C 152.053,216.57 150.887,219.737 151,223.5C 149.571,223.47 148.071,223.803 146.5,224.5C 137.078,221.081 129.745,215.081 124.5,206.5C 122.252,203.672 120.252,200.672 118.5,197.5C 119.94,196.637 121.274,196.637 122.5,197.5C 123.115,200.436 124.282,203.103 126,205.5C 127.117,204.051 127.784,202.384 128,200.5C 129.016,201.634 129.683,201.301 130,199.5C 131.614,202.602 133.447,202.936 135.5,200.5C 134.965,198.729 134.131,198.396 133,199.5C 130.848,196.967 130.348,194.3 131.5,191.5 Z"/></g>
<g><path style="opacity:1" fill="#2f2958" d="M 229.5,260.5 C 228.833,260.5 228.167,260.5 227.5,260.5C 225.167,259.167 222.833,259.167 220.5,260.5C 222.305,253.975 219.972,250.475 213.5,250C 212.257,248.846 211.257,247.512 210.5,246C 209.552,245.517 208.552,245.351 207.5,245.5C 207.158,244.662 206.492,244.328 205.5,244.5C 204.041,244.433 202.708,244.766 201.5,245.5C 201.079,243.09 199.746,241.257 197.5,240C 201.358,237.642 204.358,234.475 206.5,230.5C 208.667,230.173 211.001,229.506 213.5,228.5C 213.244,226.208 213.577,224.041 214.5,222C 217.369,220.252 220.036,218.252 222.5,216C 224.392,215.027 226.392,214.36 228.5,214C 227.263,213.768 226.263,213.268 225.5,212.5C 227.288,212.029 229.122,211.696 231,211.5C 246.478,214.41 252.478,223.743 249,239.5C 244.696,248.634 238.196,255.634 229.5,260.5 Z"/></g>
<g><path style="opacity:1" fill="#e0d2f8" d="M 152.5,211.5 C 160.281,215.68 168.615,217.514 177.5,217C 168.634,226.245 158.301,228.745 146.5,224.5C 148.071,223.803 149.571,223.47 151,223.5C 150.887,219.737 152.053,216.57 154.5,214C 153.244,213.583 152.577,212.75 152.5,211.5 Z"/></g>
<g><path style="opacity:1" fill="#2a2355" d="M 399.5,271.5 C 399.5,314.167 399.5,356.833 399.5,399.5C 266.167,399.5 132.833,399.5 -0.5,399.5C -0.5,356.5 -0.5,313.5 -0.5,270.5C 3.81002,271.08 8.14335,271.414 12.5,271.5C 12.5,276.833 12.5,282.167 12.5,287.5C 14.1667,287.5 15.8333,287.5 17.5,287.5C 17.5,290.167 17.5,292.833 17.5,295.5C 18.8333,295.5 20.1667,295.5 21.5,295.5C 21.6904,299.923 22.3571,304.256 23.5,308.5C 27.6348,307.89 31.3014,308.723 34.5,311C 45.495,311.5 56.495,311.667 67.5,311.5C 67.927,314.788 67.2603,317.788 65.5,320.5C 66.1668,323.833 68.1668,325.167 71.5,324.5C 71.5,325.5 71.5,326.5 71.5,327.5C 73.1667,327.5 74.8333,327.5 76.5,327.5C 76.5,324.833 76.5,322.167 76.5,319.5C 80.1667,319.5 83.8333,319.5 87.5,319.5C 87.5,316.833 87.5,314.167 87.5,311.5C 90.1667,311.5 92.8333,311.5 95.5,311.5C 95.5,308.833 95.5,306.167 95.5,303.5C 94.1667,303.5 92.8333,303.5 91.5,303.5C 91.5,300.833 91.5,298.167 91.5,295.5C 90.1667,295.5 88.8333,295.5 87.5,295.5C 87.5,292.833 87.5,290.167 87.5,287.5C 84.8333,287.5 82.1667,287.5 79.5,287.5C 78.7229,279.371 77.7229,271.371 76.5,263.5C 77.5,263.5 78.5,263.5 79.5,263.5C 79.3335,252.828 79.5002,242.161 80,231.5C 82.0229,229.231 82.8563,226.564 82.5,223.5C 83.5,223.5 84.5,223.5 85.5,223.5C 86.5,223.5 87.5,223.5 88.5,223.5C 90.8985,231.355 93.8985,239.022 97.5,246.5C 94.2872,245.836 92.1206,243.836 91,240.5C 88.9393,243.85 87.7726,247.517 87.5,251.5C 90.5037,257.846 92.5037,264.513 93.5,271.5C 95.0026,272.052 96.6693,272.052 98.5,271.5C 98.0413,276.531 99.0413,281.198 101.5,285.5C 100.772,287.155 100.605,288.821 101,290.5C 104.333,293.833 107.667,297.167 111,300.5C 111.483,301.448 111.649,302.448 111.5,303.5C 115.05,305.96 118.717,308.46 122.5,311C 121.552,311.483 120.552,311.649 119.5,311.5C 119.281,312.675 119.614,313.675 120.5,314.5C 127.207,318.181 133.54,322.348 139.5,327C 143.234,326.912 146.234,328.245 148.5,331C 152.108,331.026 155.442,331.859 158.5,333.5C 159.429,334.689 159.762,336.022 159.5,337.5C 162.167,337.5 164.833,337.5 167.5,337.5C 167.5,338.5 167.5,339.5 167.5,340.5C 174.192,340.665 180.859,340.332 187.5,339.5C 192.833,340.833 198.167,342.167 203.5,343.5C 207.333,342.92 211,341.753 214.5,340C 223.494,339.5 232.494,339.334 241.5,339.5C 241.116,337.071 240.449,334.737 239.5,332.5C 250.592,333.297 258.592,328.963 263.5,319.5C 266.157,319.838 268.49,319.171 270.5,317.5C 271.192,318.025 271.692,318.692 272,319.5C 273.783,316.848 275.95,314.514 278.5,312.5C 275.833,311.5 275.833,310.5 278.5,309.5C 279.192,310.025 279.692,310.692 280,311.5C 282.695,308.307 285.529,305.307 288.5,302.5C 291.682,298.164 294.182,293.497 296,288.5C 297.699,287.594 299.533,287.261 301.5,287.5C 301.024,282.211 301.858,277.211 304,272.5C 305.011,271.663 306.178,271.33 307.5,271.5C 307.335,268.15 307.502,264.817 308,261.5C 309,260.5 310,259.5 311,258.5C 311.5,252.175 311.666,245.842 311.5,239.5C 312.833,239.5 314.167,239.5 315.5,239.5C 315.543,235.107 315.043,234.774 314,238.5C 313.231,235.901 313.398,233.401 314.5,231C 312.807,231.464 311.14,232.297 309.5,233.5C 309.687,231.436 310.187,229.436 311,227.5C 311.333,228.167 311.667,228.833 312,229.5C 310.22,223.946 311.553,219.279 316,215.5C 318.81,225.964 320.643,236.63 321.5,247.5C 320.216,259.474 319.216,271.474 318.5,283.5C 317.167,284.167 316.167,285.167 315.5,286.5C 314.311,287.429 312.978,287.762 311.5,287.5C 310.833,292.833 310.167,298.167 309.5,303.5C 307.5,303.5 305.5,303.5 303.5,303.5C 303.5,308.833 303.5,314.167 303.5,319.5C 300.833,319.5 298.167,319.5 295.5,319.5C 295.281,320.675 295.614,321.675 296.5,322.5C 298.924,323.423 300.924,324.923 302.5,327C 305.482,327.498 308.482,327.665 311.5,327.5C 311.5,324.833 311.5,322.167 311.5,319.5C 314.518,319.665 317.518,319.498 320.5,319C 325.247,314.879 329.914,310.713 334.5,306.5C 335.452,308.045 335.785,309.712 335.5,311.5C 343.507,311.666 351.507,311.5 359.5,311C 354.177,310.501 348.844,310.334 343.5,310.5C 343.5,309.167 343.5,307.833 343.5,306.5C 349.176,306.334 354.843,306.501 360.5,307C 361.38,308.356 361.714,309.856 361.5,311.5C 363.5,311.5 365.5,311.5 367.5,311.5C 367.5,310.5 367.5,309.5 367.5,308.5C 372.833,307.833 378.167,307.167 383.5,306.5C 383.5,305.5 383.5,304.5 383.5,303.5C 385.833,303.5 388.167,303.5 390.5,303.5C 390.5,300.833 390.5,298.167 390.5,295.5C 389.5,295.5 388.5,295.5 387.5,295.5C 387.5,292.833 387.5,290.167 387.5,287.5C 386.167,287.5 384.833,287.5 383.5,287.5C 383.5,282.167 383.5,276.833 383.5,271.5C 388.833,271.5 394.167,271.5 399.5,271.5 Z"/></g>
<g><path style="opacity:1" fill="#c498f9" d="M 282.5,224.5 C 276.516,244.826 274.516,244.492 276.5,223.5C 276.334,216.825 276.5,210.158 277,203.5C 278.53,202.364 279.863,201.364 281,200.5C 281.778,202.584 282.945,204.417 284.5,206C 283.809,207.067 283.309,208.234 283,209.5C 282.501,214.489 282.334,219.489 282.5,224.5 Z"/></g>
<g><path style="opacity:1" fill="#d7d4ea" d="M 297.5,185.5 C 302.679,190.171 307.512,195.171 312,200.5C 312.499,195.511 312.666,190.511 312.5,185.5C 313.52,193.338 313.52,201.338 312.5,209.5C 311.113,219.716 308.779,229.716 305.5,239.5C 297.236,256.442 286.236,271.442 272.5,284.5C 247.803,304.179 219.803,312.512 188.5,309.5C 188.938,309.565 189.272,309.399 189.5,309C 187.833,308 186.5,306.667 185.5,305C 178.62,301.773 172.62,297.439 167.5,292C 163.467,291.463 160.8,289.296 159.5,285.5C 160.391,286.11 161.391,286.443 162.5,286.5C 186.345,296.824 210.345,297.157 234.5,287.5C 236.403,287.204 238.07,286.537 239.5,285.5C 260.984,275.851 277.151,260.518 288,239.5C 291.432,231.766 293.932,223.766 295.5,215.5C 297.251,205.725 297.917,195.725 297.5,185.5 Z"/></g>
<g><path style="opacity:1" fill="#261c51" d="M 97.5,246.5 C 104.866,260.873 114.532,273.54 126.5,284.5C 126.565,284.938 126.399,285.272 126,285.5C 122.657,285.352 120.657,283.685 120,280.5C 118.027,279.36 116.193,278.027 114.5,276.5C 114.704,277.529 114.204,278.529 113,279.5C 112.667,279.167 112.333,278.833 112,278.5C 111.202,280.259 111.369,281.926 112.5,283.5C 115.493,286.817 117.993,290.483 120,294.5C 121.011,295.337 122.178,295.67 123.5,295.5C 125.101,298.796 126.768,302.129 128.5,305.5C 132.851,307.339 137.351,308.672 142,309.5C 155.975,321.967 172.475,327.634 191.5,326.5C 191.5,327.5 191.5,328.5 191.5,329.5C 206.237,329.829 220.903,328.996 235.5,327C 239.812,322.177 245.145,319.511 251.5,319C 254.275,315.437 257.275,312.104 260.5,309C 262.256,308.798 263.922,308.298 265.5,307.5C 263.711,306.377 263.378,305.044 264.5,303.5C 266.599,305.534 268.932,305.868 271.5,304.5C 270.189,303.742 269.689,302.742 270,301.5C 273.635,297.042 277.135,292.542 280.5,288C 276.57,287.09 273.903,285.923 272.5,284.5C 286.236,271.442 297.236,256.442 305.5,239.5C 309.068,239.241 310.401,237.241 309.5,233.5C 311.14,232.297 312.807,231.464 314.5,231C 313.398,233.401 313.231,235.901 314,238.5C 315.043,234.774 315.543,235.107 315.5,239.5C 314.167,239.5 312.833,239.5 311.5,239.5C 311.666,245.842 311.5,252.175 311,258.5C 310,259.5 309,260.5 308,261.5C 307.502,264.817 307.335,268.15 307.5,271.5C 306.178,271.33 305.011,271.663 304,272.5C 301.858,277.211 301.024,282.211 301.5,287.5C 299.533,287.261 297.699,287.594 296,288.5C 294.182,293.497 291.682,298.164 288.5,302.5C 285.529,305.307 282.695,308.307 280,311.5C 279.692,310.692 279.192,310.025 278.5,309.5C 275.833,310.5 275.833,311.5 278.5,312.5C 275.95,314.514 273.783,316.848 272,319.5C 271.692,318.692 271.192,318.025 270.5,317.5C 268.49,319.171 266.157,319.838 263.5,319.5C 258.592,328.963 250.592,333.297 239.5,332.5C 240.449,334.737 241.116,337.071 241.5,339.5C 232.494,339.334 223.494,339.5 214.5,340C 211,341.753 207.333,342.92 203.5,343.5C 198.167,342.167 192.833,340.833 187.5,339.5C 180.859,340.332 174.192,340.665 167.5,340.5C 167.5,339.5 167.5,338.5 167.5,337.5C 164.833,337.5 162.167,337.5 159.5,337.5C 159.762,336.022 159.429,334.689 158.5,333.5C 155.442,331.859 152.108,331.026 148.5,331C 146.234,328.245 143.234,326.912 139.5,327C 133.54,322.348 127.207,318.181 120.5,314.5C 119.614,313.675 119.281,312.675 119.5,311.5C 120.552,311.649 121.552,311.483 122.5,311C 118.717,308.46 115.05,305.96 111.5,303.5C 111.649,302.448 111.483,301.448 111,300.5C 107.667,297.167 104.333,293.833 101,290.5C 100.605,288.821 100.772,287.155 101.5,285.5C 99.0413,281.198 98.0413,276.531 98.5,271.5C 96.6693,272.052 95.0026,272.052 93.5,271.5C 92.5037,264.513 90.5037,257.846 87.5,251.5C 87.7726,247.517 88.9393,243.85 91,240.5C 92.1206,243.836 94.2872,245.836 97.5,246.5 Z"/></g>
<g><path style="opacity:1" fill="#30275e" d="M 270.5,223.5 C 271.167,228.681 271.833,234.015 272.5,239.5C 272.833,235.667 273.167,231.833 273.5,228C 273.6,221.312 272.933,214.812 271.5,208.5C 273.467,213.426 275.134,218.426 276.5,223.5C 274.516,244.492 276.516,244.826 282.5,224.5C 285.351,217.909 286.684,210.909 286.5,203.5C 287.209,205.904 287.542,209.07 287.5,213C 287.214,218.92 286.381,224.754 285,230.5C 282.668,236.177 280.334,241.844 278,247.5C 275.262,250.585 272.428,251.585 269.5,250.5C 268.746,253.777 268.246,257.11 268,260.5C 266.513,261.155 265.347,262.155 264.5,263.5C 262.579,264.641 260.579,264.808 258.5,264C 259.416,263.626 260.25,263.126 261,262.5C 261.232,258.481 262.232,254.481 264,250.5C 264.969,248.266 266.302,246.266 268,244.5C 269.009,237.382 269.842,230.382 270.5,223.5 Z"/></g>
<g><path style="opacity:1" fill="#2e2755" d="M 131.5,245.5 C 135.535,247.848 139.535,250.182 143.5,252.5C 143.5,254.833 143.5,257.167 143.5,259.5C 144.791,259.263 145.791,259.596 146.5,260.5C 144.143,260.337 141.81,260.503 139.5,261C 136.963,263.825 137.63,265.991 141.5,267.5C 142.736,266.754 144.07,266.421 145.5,266.5C 148.366,268.432 151.366,270.099 154.5,271.5C 154.712,273.384 155.712,274.717 157.5,275.5C 163.654,276.817 169.654,276.817 175.5,275.5C 180.313,276.259 184.313,274.925 187.5,271.5C 189.099,271.768 190.432,271.434 191.5,270.5C 199.361,267.166 207.528,264.5 216,262.5C 217.826,263.01 217.993,263.844 216.5,265C 213.833,265.333 211.167,265.667 208.5,266C 209.167,266.333 209.833,266.667 210.5,267C 209.209,268.292 209.209,269.458 210.5,270.5C 210.5,271.167 210.167,271.5 209.5,271.5C 208.833,271.5 208.167,271.5 207.5,271.5C 204.035,273.229 200.369,274.395 196.5,275C 194.602,276.417 192.936,277.917 191.5,279.5C 189.473,279.338 187.473,279.505 185.5,280C 180.291,284.733 174.291,285.9 167.5,283.5C 164.41,283.522 161.743,284.188 159.5,285.5C 146.762,280.074 136.095,272.074 127.5,261.5C 127.5,260.167 127.5,258.833 127.5,257.5C 126.5,257.5 125.5,257.5 124.5,257.5C 125.5,253.5 126.5,249.5 127.5,245.5C 128.833,245.5 130.167,245.5 131.5,245.5 Z"/></g>
<g><path style="opacity:1" fill="#2f2a53" d="M 225.5,212.5 C 226.263,213.268 227.263,213.768 228.5,214C 226.392,214.36 224.392,215.027 222.5,216C 220.036,218.252 217.369,220.252 214.5,222C 213.577,224.041 213.244,226.208 213.5,228.5C 211.001,229.506 208.667,230.173 206.5,230.5C 204.358,234.475 201.358,237.642 197.5,240C 199.746,241.257 201.079,243.09 201.5,245.5C 197.413,247.876 193.08,249.709 188.5,251C 184.812,255.165 180.478,258.332 175.5,260.5C 165.772,261.606 156.105,261.606 146.5,260.5C 145.791,259.596 144.791,259.263 143.5,259.5C 143.5,257.167 143.5,254.833 143.5,252.5C 161.087,256.96 177.087,253.793 191.5,243C 199.833,234.667 208.167,226.333 216.5,218C 219.222,215.642 222.222,213.809 225.5,212.5 Z"/></g>
<g><path style="opacity:1" fill="#362366" d="M 205.5,244.5 C 201.449,248.194 196.783,250.86 191.5,252.5C 191.5,253.5 191.5,254.5 191.5,255.5C 190.127,255.343 188.793,255.51 187.5,256C 184.836,257.673 182.17,259.173 179.5,260.5C 178.167,260.5 176.833,260.5 175.5,260.5C 180.478,258.332 184.812,255.165 188.5,251C 193.08,249.709 197.413,247.876 201.5,245.5C 202.708,244.766 204.041,244.433 205.5,244.5 Z"/></g>
<g><path style="opacity:1" fill="#ac59f7" d="M 205.5,244.5 C 206.492,244.328 207.158,244.662 207.5,245.5C 207.5,245.833 207.5,246.167 207.5,246.5C 207.5,248.167 207.5,249.833 207.5,251.5C 210.272,251.595 212.272,252.929 213.5,255.5C 209.143,258.069 205.143,261.069 201.5,264.5C 199.819,266.008 197.819,267.008 195.5,267.5C 195.586,266.504 195.252,265.671 194.5,265C 196.577,264.808 198.577,264.308 200.5,263.5C 199.359,262.575 199.359,261.741 200.5,261C 198.744,260.798 197.078,260.298 195.5,259.5C 196.853,258.476 197.52,257.143 197.5,255.5C 198.675,255.719 199.675,255.386 200.5,254.5C 200,254.167 199.5,253.833 199,253.5C 196.79,255.111 194.29,255.778 191.5,255.5C 191.5,254.5 191.5,253.5 191.5,252.5C 196.783,250.86 201.449,248.194 205.5,244.5 Z"/></g>
<g><path style="opacity:1" fill="#a56de6" d="M 207.5,246.5 C 211.072,250.242 215.072,253.409 219.5,256C 213.599,259.118 207.599,261.951 201.5,264.5C 205.143,261.069 209.143,258.069 213.5,255.5C 212.272,252.929 210.272,251.595 207.5,251.5C 207.5,249.833 207.5,248.167 207.5,246.5 Z"/></g>
<g><path style="opacity:1" fill="#3d1f6c" d="M 146.5,260.5 C 156.105,261.606 165.772,261.606 175.5,260.5C 165.108,264.044 154.442,264.377 143.5,261.5C 143.365,263.554 144.032,265.221 145.5,266.5C 144.07,266.421 142.736,266.754 141.5,267.5C 137.63,265.991 136.963,263.825 139.5,261C 141.81,260.503 144.143,260.337 146.5,260.5 Z"/></g>
<g><path style="opacity:1" fill="#a246f6" d="M 195.5,267.5 C 194.167,268.5 192.833,269.5 191.5,270.5C 190.432,271.434 189.099,271.768 187.5,271.5C 187.167,271.5 186.833,271.5 186.5,271.5C 186.414,270.504 186.748,269.671 187.5,269C 188.938,268.781 190.271,268.281 191.5,267.5C 189.5,267.167 187.5,266.833 185.5,266.5C 186.376,265.749 187.376,265.249 188.5,265C 187.429,263.175 188.096,262.008 190.5,261.5C 191.833,260.167 191.833,258.833 190.5,257.5C 186.986,259.117 183.319,260.117 179.5,260.5C 182.17,259.173 184.836,257.673 187.5,256C 188.793,255.51 190.127,255.343 191.5,255.5C 194.29,255.778 196.79,255.111 199,253.5C 199.5,253.833 200,254.167 200.5,254.5C 199.675,255.386 198.675,255.719 197.5,255.5C 197.52,257.143 196.853,258.476 195.5,259.5C 197.078,260.298 198.744,260.798 200.5,261C 199.359,261.741 199.359,262.575 200.5,263.5C 198.577,264.308 196.577,264.808 194.5,265C 195.252,265.671 195.586,266.504 195.5,267.5 Z"/></g>
<g><path style="opacity:1" fill="#352561" d="M 207.5,246.5 C 207.5,246.167 207.5,245.833 207.5,245.5C 208.552,245.351 209.552,245.517 210.5,246C 211.257,247.512 212.257,248.846 213.5,250C 219.972,250.475 222.305,253.975 220.5,260.5C 222.833,259.167 225.167,259.167 227.5,260.5C 227.167,261.167 226.833,261.833 226.5,262.5C 222.665,264.25 218.999,266.25 215.5,268.5C 213.95,269.441 212.284,270.107 210.5,270.5C 209.209,269.458 209.209,268.292 210.5,267C 209.833,266.667 209.167,266.333 208.5,266C 211.167,265.667 213.833,265.333 216.5,265C 217.993,263.844 217.826,263.01 216,262.5C 207.528,264.5 199.361,267.166 191.5,270.5C 192.833,269.5 194.167,268.5 195.5,267.5C 197.819,267.008 199.819,266.008 201.5,264.5C 207.599,261.951 213.599,259.118 219.5,256C 215.072,253.409 211.072,250.242 207.5,246.5 Z"/></g>
<g><path style="opacity:1" fill="#cdabf9" d="M 226.5,262.5 C 230.379,264.273 233.712,266.773 236.5,270C 233.036,271.372 231.369,273.872 231.5,277.5C 229.064,278.871 226.397,279.871 223.5,280.5C 224.932,278.562 226.599,276.729 228.5,275C 228.265,274.127 227.931,273.293 227.5,272.5C 223.157,271.987 219.157,270.653 215.5,268.5C 218.999,266.25 222.665,264.25 226.5,262.5 Z"/></g>
<g><path style="opacity:1" fill="#9430f6" d="M 186.5,271.5 C 184.641,272.594 182.641,273.427 180.5,274C 174.843,274.499 169.176,274.666 163.5,274.5C 162.167,274.5 160.833,274.5 159.5,274.5C 159.5,273.5 159.5,272.5 159.5,271.5C 157.833,271.5 156.167,271.5 154.5,271.5C 151.366,270.099 148.366,268.432 145.5,266.5C 144.032,265.221 143.365,263.554 143.5,261.5C 154.442,264.377 165.108,264.044 175.5,260.5C 176.833,260.5 178.167,260.5 179.5,260.5C 183.319,260.117 186.986,259.117 190.5,257.5C 191.833,258.833 191.833,260.167 190.5,261.5C 188.096,262.008 187.429,263.175 188.5,265C 187.376,265.249 186.376,265.749 185.5,266.5C 187.5,266.833 189.5,267.167 191.5,267.5C 190.271,268.281 188.938,268.781 187.5,269C 186.748,269.671 186.414,270.504 186.5,271.5 Z"/></g>
<g><path style="opacity:1" fill="#d2b9f4" d="M 227.5,260.5 C 228.167,260.5 228.833,260.5 229.5,260.5C 233.947,264.564 238.947,267.898 244.5,270.5C 242.833,271.833 241.167,273.167 239.5,274.5C 236.833,275.5 234.167,276.5 231.5,277.5C 231.369,273.872 233.036,271.372 236.5,270C 233.712,266.773 230.379,264.273 226.5,262.5C 226.833,261.833 227.167,261.167 227.5,260.5 Z"/></g>
<g><path style="opacity:1" fill="#2f2a56" d="M 276.5,172.5 C 280.168,177.007 283.668,181.673 287,186.5C 287.092,182.782 286.592,179.115 285.5,175.5C 286.675,175.719 287.675,175.386 288.5,174.5C 289.972,168.126 291.806,168.126 294,174.5C 295.284,188.135 295.784,201.801 295.5,215.5C 293.932,223.766 291.432,231.766 288,239.5C 277.151,260.518 260.984,275.851 239.5,285.5C 239.5,284.5 239.5,283.5 239.5,282.5C 237.774,282.815 236.107,282.981 234.5,283C 234.833,282 235.167,281 235.5,280C 237.744,277.697 239.41,278.03 240.5,281C 241.833,281.667 243.167,281.667 244.5,281C 245.545,279.384 246.545,277.717 247.5,276C 246.217,272.952 244.551,272.785 242.5,275.5C 241.583,274.873 240.583,274.539 239.5,274.5C 241.167,273.167 242.833,271.833 244.5,270.5C 263.508,257.139 270.174,239.139 264.5,216.5C 265.117,216.389 265.617,216.056 266,215.5C 266.333,216.833 266.667,218.167 267,219.5C 269.071,220.103 270.238,221.436 270.5,223.5C 269.842,230.382 269.009,237.382 268,244.5C 266.302,246.266 264.969,248.266 264,250.5C 262.232,254.481 261.232,258.481 261,262.5C 260.25,263.126 259.416,263.626 258.5,264C 260.579,264.808 262.579,264.641 264.5,263.5C 265.347,262.155 266.513,261.155 268,260.5C 268.246,257.11 268.746,253.777 269.5,250.5C 272.428,251.585 275.262,250.585 278,247.5C 280.334,241.844 282.668,236.177 285,230.5C 286.381,224.754 287.214,218.92 287.5,213C 287.542,209.07 287.209,205.904 286.5,203.5C 285.029,199.022 282.696,195.022 279.5,191.5C 278.974,189.77 277.974,188.436 276.5,187.5C 271.833,179.5 265.5,173.167 257.5,168.5C 260.136,164.815 263.136,164.648 266.5,168C 268.134,168.494 269.801,168.66 271.5,168.5C 271.337,170.857 271.503,173.19 272,175.5C 272.908,173.561 274.408,172.561 276.5,172.5 Z"/></g>
<g><path style="opacity:1" fill="#cbc0ea" d="M 274.5,169.5 C 277.26,170.423 279.26,172.256 280.5,175C 281.793,175.49 283.127,175.657 284.5,175.5C 284.5,174.5 284.5,173.5 284.5,172.5C 285.404,173.209 285.737,174.209 285.5,175.5C 286.592,179.115 287.092,182.782 287,186.5C 283.668,181.673 280.168,177.007 276.5,172.5C 275.833,171.5 275.167,170.5 274.5,169.5 Z"/></g>
<g><path style="opacity:1" fill="#622cb3" d="M 186.5,271.5 C 186.833,271.5 187.167,271.5 187.5,271.5C 184.313,274.925 180.313,276.259 175.5,275.5C 171.298,275.817 167.298,275.483 163.5,274.5C 169.176,274.666 174.843,274.499 180.5,274C 182.641,273.427 184.641,272.594 186.5,271.5 Z"/></g>
<g><path style="opacity:1" fill="#3d1b7b" d="M 154.5,271.5 C 156.167,271.5 157.833,271.5 159.5,271.5C 159.5,272.5 159.5,273.5 159.5,274.5C 160.833,274.5 162.167,274.5 163.5,274.5C 167.298,275.483 171.298,275.817 175.5,275.5C 169.654,276.817 163.654,276.817 157.5,275.5C 155.712,274.717 154.712,273.384 154.5,271.5 Z"/></g>
<g><path style="opacity:1" fill="#3c2572" d="M 207.5,271.5 C 204.833,273.5 202.167,275.5 199.5,277.5C 196.933,278.475 194.267,279.142 191.5,279.5C 192.936,277.917 194.602,276.417 196.5,275C 200.369,274.395 204.035,273.229 207.5,271.5 Z"/></g>
<g><path style="opacity:1" fill="#b684f3" d="M 207.5,271.5 C 208.167,271.5 208.833,271.5 209.5,271.5C 209.369,272.239 209.536,272.906 210,273.5C 211.667,273.5 213.333,273.5 215,273.5C 215.615,275.116 216.615,276.449 218,277.5C 217.852,278.825 218.018,279.992 218.5,281C 217.584,281.278 216.918,281.778 216.5,282.5C 207.125,284.614 197.792,284.948 188.5,283.5C 195.289,283.799 201.956,283.132 208.5,281.5C 208.33,280.178 208.663,279.011 209.5,278C 206.233,276.18 202.9,276.014 199.5,277.5C 202.167,275.5 204.833,273.5 207.5,271.5 Z"/></g>
<g><path style="opacity:1" fill="#c59ef9" d="M 215.5,268.5 C 219.157,270.653 223.157,271.987 227.5,272.5C 227.931,273.293 228.265,274.127 228.5,275C 226.599,276.729 224.932,278.562 223.5,280.5C 223.5,280.833 223.5,281.167 223.5,281.5C 221.139,281.674 218.806,282.007 216.5,282.5C 216.918,281.778 217.584,281.278 218.5,281C 218.018,279.992 217.852,278.825 218,277.5C 216.615,276.449 215.615,275.116 215,273.5C 213.333,273.5 211.667,273.5 210,273.5C 209.536,272.906 209.369,272.239 209.5,271.5C 210.167,271.5 210.5,271.167 210.5,270.5C 212.284,270.107 213.95,269.441 215.5,268.5 Z"/></g>
<g><path style="opacity:1" fill="#21154c" d="M 126.5,284.5 C 144.571,299.083 165.237,307.417 188.5,309.5C 219.803,312.512 247.803,304.179 272.5,284.5C 273.903,285.923 276.57,287.09 280.5,288C 277.135,292.542 273.635,297.042 270,301.5C 269.689,302.742 270.189,303.742 271.5,304.5C 268.932,305.868 266.599,305.534 264.5,303.5C 263.378,305.044 263.711,306.377 265.5,307.5C 263.922,308.298 262.256,308.798 260.5,309C 257.275,312.104 254.275,315.437 251.5,319C 245.145,319.511 239.812,322.177 235.5,327C 220.903,328.996 206.237,329.829 191.5,329.5C 191.5,328.5 191.5,327.5 191.5,326.5C 172.475,327.634 155.975,321.967 142,309.5C 137.351,308.672 132.851,307.339 128.5,305.5C 126.768,302.129 125.101,298.796 123.5,295.5C 122.178,295.67 121.011,295.337 120,294.5C 117.993,290.483 115.493,286.817 112.5,283.5C 111.369,281.926 111.202,280.259 112,278.5C 112.333,278.833 112.667,279.167 113,279.5C 114.204,278.529 114.704,277.529 114.5,276.5C 116.193,278.027 118.027,279.36 120,280.5C 120.657,283.685 122.657,285.352 126,285.5C 126.399,285.272 126.565,284.938 126.5,284.5 Z"/></g>
<g><path style="opacity:1" fill="#a763f8" d="M 188.5,283.5 C 187.127,283.657 185.793,283.49 184.5,283C 186.858,281.724 189.192,280.558 191.5,279.5C 194.267,279.142 196.933,278.475 199.5,277.5C 202.9,276.014 206.233,276.18 209.5,278C 208.663,279.011 208.33,280.178 208.5,281.5C 201.956,283.132 195.289,283.799 188.5,283.5 Z"/></g>
<g><path style="opacity:1" fill="#2d2356" d="M 239.5,285.5 C 238.07,286.537 236.403,287.204 234.5,287.5C 231.978,287.872 229.978,287.039 228.5,285C 224.511,284.092 220.845,284.759 217.5,287C 219.577,287.192 221.577,287.692 223.5,288.5C 220.41,290.736 217.243,290.736 214,288.5C 212.938,289.097 211.772,289.43 210.5,289.5C 204.118,287.755 197.785,286.422 191.5,285.5C 201.602,285.996 211.602,285.33 221.5,283.5C 222.713,283.253 223.38,282.586 223.5,281.5C 223.5,281.167 223.5,280.833 223.5,280.5C 226.397,279.871 229.064,278.871 231.5,277.5C 234.167,276.5 236.833,275.5 239.5,274.5C 240.583,274.539 241.583,274.873 242.5,275.5C 244.551,272.785 246.217,272.952 247.5,276C 246.545,277.717 245.545,279.384 244.5,281C 243.167,281.667 241.833,281.667 240.5,281C 239.41,278.03 237.744,277.697 235.5,280C 235.167,281 234.833,282 234.5,283C 236.107,282.981 237.774,282.815 239.5,282.5C 239.5,283.5 239.5,284.5 239.5,285.5 Z"/></g>
<g><path style="opacity:1" fill="#322264" d="M 191.5,279.5 C 189.192,280.558 186.858,281.724 184.5,283C 185.793,283.49 187.127,283.657 188.5,283.5C 197.792,284.948 207.125,284.614 216.5,282.5C 218.806,282.007 221.139,281.674 223.5,281.5C 223.38,282.586 222.713,283.253 221.5,283.5C 211.602,285.33 201.602,285.996 191.5,285.5C 186.589,285.033 181.922,285.7 177.5,287.5C 172.544,286.606 167.544,286.273 162.5,286.5C 161.391,286.443 160.391,286.11 159.5,285.5C 161.743,284.188 164.41,283.522 167.5,283.5C 174.291,285.9 180.291,284.733 185.5,280C 187.473,279.505 189.473,279.338 191.5,279.5 Z"/></g>
<g><path style="opacity:1" fill="#2d2853" d="M 234.5,287.5 C 210.345,297.157 186.345,296.824 162.5,286.5C 167.544,286.273 172.544,286.606 177.5,287.5C 181.922,285.7 186.589,285.033 191.5,285.5C 197.785,286.422 204.118,287.755 210.5,289.5C 211.772,289.43 212.938,289.097 214,288.5C 217.243,290.736 220.41,290.736 223.5,288.5C 221.577,287.692 219.577,287.192 217.5,287C 220.845,284.759 224.511,284.092 228.5,285C 229.978,287.039 231.978,287.872 234.5,287.5 Z"/></g>
</svg>
